<svg xmlns="http://www.w3.org/2000/svg" width="132" height="132" viewBox="0 0 132 132" role="img" aria-label="Estrogen protocol icon">
<defs><filter id="g"><feGaussianBlur stdDeviation="3" result="b"/><feMerge><feMergeNode in="b"/><feMergeNode in="SourceGraphic"/></feMerge></filter><radialGradient id="r" cx="50%" cy="50%" r="52%"><stop offset="0%" stop-color="#e47b16" stop-opacity=".18"/><stop offset="100%" stop-color="#ffffff" stop-opacity="0"/></radialGradient></defs>
<rect width="132" height="132" rx="28" fill="#ffffff" fill-opacity=".95"/>
<circle cx="66" cy="66" r="58" fill="url(#r)"/>
<g filter="url(#g)">
<path d="M66 18c15 13 30 15 42 17-2 38-16 63-42 77-26-14-40-39-42-77 12-2 27-4 42-17z" fill="none" stroke="#e47b16" stroke-width="6" stroke-linejoin="round"/>
<circle cx="66" cy="61" r="6" fill="none" stroke="#e47b16" stroke-width="5"/>
<circle cx="48" cy="82" r="5" fill="none" stroke="#e47b16" stroke-width="4"/>
<circle cx="84" cy="82" r="5" fill="none" stroke="#e47b16" stroke-width="4"/>
<path d="M62 66 51 78M70 66l11 12M66 55V42" stroke="#e47b16" stroke-width="4" stroke-linecap="round"/>
<circle cx="66" cy="39" r="4" fill="#e47b16"/></g>
</svg>