<svg xmlns="http://www.w3.org/2000/svg" width="132" height="132" viewBox="0 0 132 132" role="img" aria-label="Joint protocol icon">
<defs><filter id="g"><feGaussianBlur stdDeviation="3" result="b"/><feMerge><feMergeNode in="b"/><feMergeNode in="SourceGraphic"/></feMerge></filter><radialGradient id="r" cx="50%" cy="50%" r="52%"><stop offset="0%" stop-color="#20a879" stop-opacity=".18"/><stop offset="100%" stop-color="#ffffff" stop-opacity="0"/></radialGradient></defs>
<rect width="132" height="132" rx="28" fill="#ffffff" fill-opacity=".95"/>
<circle cx="66" cy="66" r="58" fill="url(#r)"/>
<g filter="url(#g)">
<path d="M66 18c-22 10-34 28-34 49 0 20 12 36 30 45" fill="none" stroke="#20a879" stroke-width="6" stroke-linecap="round"/>
<path d="M76 20c-10 18-8 30 0 40 8 9 9 19 2 31" fill="none" stroke="#20a879" stroke-width="6" stroke-linecap="round"/>
<path d="M54 62c9 5 16 5 25 0M51 78c13 6 27 6 40 0" fill="none" stroke="#20a879" stroke-width="5" stroke-linecap="round"/>
<path d="M93 39c7 14 8 28 2 43-5 13-14 23-26 30" fill="none" stroke="#20a879" stroke-width="6" stroke-linecap="round" opacity=".75"/>
<circle cx="66" cy="74" r="8" fill="none" stroke="#20a879" stroke-width="5"/></g>
</svg>